<svg xmlns="http://www.w3.org/2000/svg" viewBox="0 0 24 16" shape-rendering="crispEdges"><path fill="#312636" d="M0 0h4v1H0z"/><path fill="#261e34" d="M4 0h1v1H4z"/><path fill="#312636" d="M5 0h2v1H5z"/><path fill="#261e34" d="M7 0h2v1H7z"/><path fill="#312636" d="M9 0h1v1H9z"/><path fill="#261e34" d="M10 0h2v1H10z"/><path fill="#312636" d="M12 0h1v1H12z"/><path fill="#261e34" d="M13 0h1v1H13z"/><path fill="#312636" d="M14 0h1v1H14z"/><path fill="#261e34" d="M15 0h1v1H15z"/><path fill="#3a2e44" d="M16 0h1v1H16z"/><path fill="#312636" d="M17 0h1v1H17z"/><path fill="#261e34" d="M18 0h3v1H18z"/><path fill="#312636" d="M21 0h3v1H21z"/><path fill="#603b45" d="M0 1h1v1H0z"/><path fill="#4c3345" d="M1 1h1v1H1z"/><path fill="#4a2c35" d="M2 1h2v1H2z"/><path fill="#261e34" d="M4 1h13v1H4z"/><path fill="#603b45" d="M17 1h1v1H17z"/><path fill="#775357" d="M18 1h1v1H18z"/><path fill="#4c3345" d="M19 1h1v1H19z"/><path fill="#603b45" d="M20 1h1v1H20z"/><path fill="#4c3345" d="M21 1h1v1H21z"/><path fill="#4a2c35" d="M22 1h1v1H22z"/><path fill="#4c3345" d="M23 1h1v1H23z"/><path fill="#4a2c35" d="M0 2h1v1H0z"/><path fill="#4c3345" d="M1 2h1v1H1z"/><path fill="#7a4a44" d="M2 2h1v1H2z"/><path fill="#4a2c35" d="M3 2h1v1H3z"/><path fill="#312636" d="M4 2h1v1H4z"/><path fill="#4f3848" d="M5 2h1v1H5z"/><path fill="#3a2e44" d="M6 2h2v1H6z"/><path fill="#261e34" d="M8 2h1v1H8z"/><path fill="#3a2e44" d="M9 2h1v1H9z"/><path fill="#a06862" d="M10 2h1v1H10z"/><path fill="#3a2e44" d="M11 2h1v1H11z"/><path fill="#261e34" d="M12 2h3v1H12z"/><path fill="#3a2e44" d="M15 2h1v1H15z"/><path fill="#312636" d="M16 2h1v1H16z"/><path fill="#603b45" d="M17 2h1v1H17z"/><path fill="#8f584f" d="M18 2h1v1H18z"/><path fill="#603b45" d="M19 2h1v1H19z"/><path fill="#4c3345" d="M20 2h1v1H20z"/><path fill="#6e474f" d="M21 2h1v1H21z"/><path fill="#312636" d="M22 2h1v1H22z"/><path fill="#261e34" d="M23 2h1v1H23z"/><path fill="#261e34" d="M0 3h1v1H0z"/><path fill="#4a2c35" d="M1 3h1v1H1z"/><path fill="#7a4a44" d="M2 3h1v1H2z"/><path fill="#4a2c35" d="M3 3h1v1H3z"/><path fill="#3a2e44" d="M4 3h1v1H4z"/><path fill="#624452" d="M5 3h3v1H5z"/><path fill="#3a2e44" d="M8 3h1v1H8z"/><path fill="#261e34" d="M9 3h1v1H9z"/><path fill="#624452" d="M10 3h1v1H10z"/><path fill="#3a2e44" d="M11 3h4v1H11z"/><path fill="#4f3848" d="M15 3h1v1H15z"/><path fill="#603b45" d="M16 3h1v1H16z"/><path fill="#6e474f" d="M17 3h1v1H17z"/><path fill="#603b45" d="M18 3h1v1H18z"/><path fill="#4a2c35" d="M19 3h1v1H19z"/><path fill="#775357" d="M20 3h2v1H20z"/><path fill="#4f3848" d="M22 3h1v1H22z"/><path fill="#4a2c35" d="M23 3h1v1H23z"/><path fill="#312636" d="M0 4h1v1H0z"/><path fill="#4a2c35" d="M1 4h1v1H1z"/><path fill="#7a4a44" d="M2 4h1v1H2z"/><path fill="#4c3345" d="M3 4h1v1H3z"/><path fill="#3a2e44" d="M4 4h1v1H4z"/><path fill="#624452" d="M5 4h3v1H5z"/><path fill="#4f3848" d="M8 4h1v1H8z"/><path fill="#3a2e44" d="M9 4h3v1H9z"/><path fill="#4f3848" d="M12 4h1v1H12z"/><path fill="#3a2e44" d="M13 4h1v1H13z"/><path fill="#4f3848" d="M14 4h1v1H14z"/><path fill="#775357" d="M15 4h1v1H15z"/><path fill="#7a4a44" d="M16 4h1v1H16z"/><path fill="#8f584f" d="M17 4h1v1H17z"/><path fill="#775357" d="M18 4h1v1H18z"/><path fill="#6e474f" d="M19 4h1v1H19z"/><path fill="#603b45" d="M20 4h1v1H20z"/><path fill="#624452" d="M21 4h1v1H21z"/><path fill="#775357" d="M22 4h1v1H22z"/><path fill="#624452" d="M23 4h1v1H23z"/><path fill="#7a4a44" d="M0 5h3v1H0z"/><path fill="#8f584f" d="M3 5h1v1H3z"/><path fill="#3a2e44" d="M4 5h1v1H4z"/><path fill="#624452" d="M5 5h2v1H5z"/><path fill="#4f3848" d="M7 5h2v1H7z"/><path fill="#624452" d="M9 5h3v1H9z"/><path fill="#4f3848" d="M12 5h1v1H12z"/><path fill="#4c3345" d="M13 5h1v1H13z"/><path fill="#4f3848" d="M14 5h1v1H14z"/><path fill="#624452" d="M15 5h1v1H15z"/><path fill="#7a4a44" d="M16 5h1v1H16z"/><path fill="#a06862" d="M17 5h1v1H17z"/><path fill="#6e474f" d="M18 5h1v1H18z"/><path fill="#7a4a44" d="M19 5h1v1H19z"/><path fill="#603b45" d="M20 5h1v1H20z"/><path fill="#624452" d="M21 5h1v1H21z"/><path fill="#a06862" d="M22 5h1v1H22z"/><path fill="#624452" d="M23 5h1v1H23z"/><path fill="#603b45" d="M0 6h1v1H0z"/><path fill="#7a4a44" d="M1 6h3v1H1z"/><path fill="#4f3848" d="M4 6h1v1H4z"/><path fill="#624452" d="M5 6h1v1H5z"/><path fill="#4f3848" d="M6 6h1v1H6z"/><path fill="#624452" d="M7 6h2v1H7z"/><path fill="#6e474f" d="M9 6h1v1H9z"/><path fill="#603b45" d="M10 6h2v1H10z"/><path fill="#4a2c35" d="M12 6h2v1H12z"/><path fill="#603b45" d="M14 6h1v1H14z"/><path fill="#7a4a44" d="M15 6h1v1H15z"/><path fill="#c88569" d="M16 6h1v1H16z"/><path fill="#a06862" d="M17 6h1v1H17z"/><path fill="#4c3345" d="M18 6h1v1H18z"/><path fill="#a06862" d="M19 6h1v1H19z"/><path fill="#603b45" d="M20 6h1v1H20z"/><path fill="#6e474f" d="M21 6h1v1H21z"/><path fill="#a06862" d="M22 6h1v1H22z"/><path fill="#775357" d="M23 6h1v1H23z"/><path fill="#7a4a44" d="M0 7h1v1H0z"/><path fill="#a06862" d="M1 7h2v1H1z"/><path fill="#7a4a44" d="M3 7h1v1H3z"/><path fill="#4c3345" d="M4 7h1v1H4z"/><path fill="#4f3848" d="M5 7h1v1H5z"/><path fill="#3a2e44" d="M6 7h2v1H6z"/><path fill="#4c3345" d="M8 7h1v1H8z"/><path fill="#603b45" d="M9 7h1v1H9z"/><path fill="#4a2c35" d="M10 7h1v1H10z"/><path fill="#261e34" d="M11 7h1v1H11z"/><path fill="#4a2c35" d="M12 7h1v1H12z"/><path fill="#a06862" d="M13 7h3v1H13z"/><path fill="#c88569" d="M16 7h1v1H16z"/><path fill="#8f584f" d="M17 7h1v1H17z"/><path fill="#603b45" d="M18 7h1v1H18z"/><path fill="#775357" d="M19 7h1v1H19z"/><path fill="#7a4a44" d="M20 7h1v1H20z"/><path fill="#603b45" d="M21 7h1v1H21z"/><path fill="#4f3848" d="M22 7h2v1H22z"/><path fill="#7a4a44" d="M0 8h1v1H0z"/><path fill="#a06862" d="M1 8h1v1H1z"/><path fill="#c88569" d="M2 8h2v1H2z"/><path fill="#7a4a44" d="M4 8h3v1H4z"/><path fill="#8f584f" d="M7 8h2v1H7z"/><path fill="#4a2c35" d="M9 8h1v1H9z"/><path fill="#a06862" d="M10 8h1v1H10z"/><path fill="#8f584f" d="M11 8h1v1H11z"/><path fill="#261e34" d="M12 8h1v1H12z"/><path fill="#7a4a44" d="M13 8h1v1H13z"/><path fill="#a06862" d="M14 8h1v1H14z"/><path fill="#775357" d="M15 8h2v1H15z"/><path fill="#624452" d="M17 8h1v1H17z"/><path fill="#6e474f" d="M18 8h2v1H18z"/><path fill="#775357" d="M20 8h2v1H20z"/><path fill="#4a2c35" d="M22 8h2v1H22z"/><path fill="#4c3345" d="M0 9h1v1H0z"/><path fill="#603b45" d="M1 9h1v1H1z"/><path fill="#6e474f" d="M2 9h1v1H2z"/><path fill="#8f584f" d="M3 9h1v1H3z"/><path fill="#c88569" d="M4 9h2v1H4z"/><path fill="#a06862" d="M6 9h2v1H6z"/><path fill="#4a2c35" d="M8 9h1v1H8z"/><path fill="#7a4a44" d="M9 9h1v1H9z"/><path fill="#c88569" d="M10 9h1v1H10z"/><path fill="#8f584f" d="M11 9h1v1H11z"/><path fill="#4a2c35" d="M12 9h1v1H12z"/><path fill="#261e34" d="M13 9h1v1H13z"/><path fill="#4a2c35" d="M14 9h1v1H14z"/><path fill="#624452" d="M15 9h3v1H15z"/><path fill="#4f3848" d="M18 9h1v1H18z"/><path fill="#261e34" d="M19 9h1v1H19z"/><path fill="#4a2c35" d="M20 9h1v1H20z"/><path fill="#a06862" d="M21 9h1v1H21z"/><path fill="#603b45" d="M22 9h1v1H22z"/><path fill="#7a4a44" d="M23 9h1v1H23z"/><path fill="#3a2e44" d="M0 10h2v1H0z"/><path fill="#4f3848" d="M2 10h1v1H2z"/><path fill="#7a4a44" d="M3 10h1v1H3z"/><path fill="#c88569" d="M4 10h2v1H4z"/><path fill="#603b45" d="M6 10h1v1H6z"/><path fill="#4c3345" d="M7 10h2v1H7z"/><path fill="#603b45" d="M9 10h1v1H9z"/><path fill="#c88569" d="M10 10h2v1H10z"/><path fill="#7a4a44" d="M12 10h1v1H12z"/><path fill="#603b45" d="M13 10h2v1H13z"/><path fill="#775357" d="M15 10h1v1H15z"/><path fill="#4a2c35" d="M16 10h1v1H16z"/><path fill="#4f3848" d="M17 10h1v1H17z"/><path fill="#624452" d="M18 10h1v1H18z"/><path fill="#775357" d="M19 10h1v1H19z"/><path fill="#603b45" d="M20 10h1v1H20z"/><path fill="#7a4a44" d="M21 10h2v1H21z"/><path fill="#4a2c35" d="M23 10h1v1H23z"/><path fill="#3a2e44" d="M0 11h1v1H0z"/><path fill="#4f3848" d="M1 11h2v1H1z"/><path fill="#7a4a44" d="M3 11h1v1H3z"/><path fill="#c88569" d="M4 11h1v1H4z"/><path fill="#a06862" d="M5 11h1v1H5z"/><path fill="#603b45" d="M6 11h2v1H6z"/><path fill="#4c3345" d="M8 11h2v1H8z"/><path fill="#a06862" d="M10 11h1v1H10z"/><path fill="#c88569" d="M11 11h2v1H11z"/><path fill="#a06862" d="M13 11h1v1H13z"/><path fill="#c88569" d="M14 11h2v1H14z"/><path fill="#775357" d="M16 11h1v1H16z"/><path fill="#a06862" d="M17 11h1v1H17z"/><path fill="#775357" d="M18 11h1v1H18z"/><path fill="#a06862" d="M19 11h3v1H19z"/><path fill="#775357" d="M22 11h1v1H22z"/><path fill="#603b45" d="M23 11h1v1H23z"/><path fill="#8f584f" d="M0 12h1v1H0z"/><path fill="#775357" d="M1 12h1v1H1z"/><path fill="#4a2c35" d="M2 12h1v1H2z"/><path fill="#312636" d="M3 12h1v1H3z"/><path fill="#8f584f" d="M4 12h2v1H4z"/><path fill="#7a4a44" d="M6 12h1v1H6z"/><path fill="#624452" d="M7 12h3v1H7z"/><path fill="#4c3345" d="M10 12h1v1H10z"/><path fill="#603b45" d="M11 12h1v1H11z"/><path fill="#775357" d="M12 12h1v1H12z"/><path fill="#8f584f" d="M13 12h1v1H13z"/><path fill="#c88569" d="M14 12h5v1H14z"/><path fill="#8f584f" d="M19 12h1v1H19z"/><path fill="#7a4a44" d="M20 12h1v1H20z"/><path fill="#775357" d="M21 12h1v1H21z"/><path fill="#6e474f" d="M22 12h2v1H22z"/><path fill="#603b45" d="M0 13h2v1H0z"/><path fill="#775357" d="M2 13h1v1H2z"/><path fill="#a06862" d="M3 13h3v1H3z"/><path fill="#c88569" d="M6 13h2v1H6z"/><path fill="#a06862" d="M8 13h1v1H8z"/><path fill="#775357" d="M9 13h1v1H9z"/><path fill="#3a2e44" d="M10 13h1v1H10z"/><path fill="#4f3848" d="M11 13h1v1H11z"/><path fill="#3a2e44" d="M12 13h1v1H12z"/><path fill="#312636" d="M13 13h1v1H13z"/><path fill="#775357" d="M14 13h1v1H14z"/><path fill="#a06862" d="M15 13h1v1H15z"/><path fill="#6e474f" d="M16 13h1v1H16z"/><path fill="#4a2c35" d="M17 13h1v1H17z"/><path fill="#312636" d="M18 13h1v1H18z"/><path fill="#4a2c35" d="M19 13h2v1H19z"/><path fill="#3a2e44" d="M21 13h1v1H21z"/><path fill="#4c3345" d="M22 13h1v1H22z"/><path fill="#3a2e44" d="M23 13h1v1H23z"/><path fill="#261e34" d="M0 14h1v1H0z"/><path fill="#4a2c35" d="M1 14h1v1H1z"/><path fill="#603b45" d="M2 14h1v1H2z"/><path fill="#7a4a44" d="M3 14h1v1H3z"/><path fill="#8f584f" d="M4 14h2v1H4z"/><path fill="#a06862" d="M6 14h2v1H6z"/><path fill="#6e474f" d="M8 14h1v1H8z"/><path fill="#775357" d="M9 14h1v1H9z"/><path fill="#624452" d="M10 14h2v1H10z"/><path fill="#775357" d="M12 14h1v1H12z"/><path fill="#624452" d="M13 14h1v1H13z"/><path fill="#a06862" d="M14 14h2v1H14z"/><path fill="#624452" d="M16 14h3v1H16z"/><path fill="#6e474f" d="M19 14h1v1H19z"/><path fill="#3a2e44" d="M20 14h1v1H20z"/><path fill="#261e34" d="M21 14h1v1H21z"/><path fill="#312636" d="M22 14h1v1H22z"/><path fill="#261e34" d="M23 14h1v1H23z"/><path fill="#261e34" d="M0 15h1v1H0z"/><path fill="#312636" d="M1 15h1v1H1z"/><path fill="#4a2c35" d="M2 15h1v1H2z"/><path fill="#261e34" d="M3 15h2v1H3z"/><path fill="#7a4a44" d="M5 15h2v1H5z"/><path fill="#4c3345" d="M7 15h1v1H7z"/><path fill="#4a2c35" d="M8 15h1v1H8z"/><path fill="#624452" d="M9 15h2v1H9z"/><path fill="#775357" d="M11 15h5v1H11z"/><path fill="#624452" d="M16 15h1v1H16z"/><path fill="#775357" d="M17 15h2v1H17z"/><path fill="#624452" d="M19 15h1v1H19z"/><path fill="#4c3345" d="M20 15h1v1H20z"/><path fill="#312636" d="M21 15h1v1H21z"/><path fill="#261e34" d="M22 15h2v1H22z"/></svg>